<svg width="1600" height="1000" viewBox="0 0 1600 1000" fill="none" xmlns="http://www.w3.org/2000/svg">
  <rect width="1600" height="1000" rx="52" fill="#0F172A"/>
  <rect x="44" y="44" width="1512" height="912" rx="42" fill="#111F3B"/>
  <rect x="92" y="94" width="1416" height="84" rx="20" fill="#1B2C4F"/>
  <rect x="124" y="118" width="210" height="36" rx="12" fill="#9CC2FF" fill-opacity="0.42"/>
  <rect x="1180" y="118" width="132" height="36" rx="18" fill="#76A5FF"/>
  <rect x="1330" y="118" width="132" height="36" rx="18" fill="#2C6DFF"/>
  <rect x="92" y="220" width="918" height="684" rx="28" fill="#0E1A33"/>
  <circle cx="550" cy="550" r="208" fill="#2D74FF" fill-opacity="0.45"/>
  <rect x="1090" y="220" width="418" height="270" rx="28" fill="#162A4C"/>
  <rect x="1090" y="520" width="418" height="384" rx="28" fill="#162A4C"/>
  <rect x="1124" y="556" width="348" height="24" rx="12" fill="#9CC2FF" fill-opacity="0.5"/>
  <rect x="1124" y="602" width="280" height="18" rx="9" fill="#9CC2FF" fill-opacity="0.36"/>
  <rect x="1124" y="650" width="320" height="18" rx="9" fill="#9CC2FF" fill-opacity="0.36"/>
  <rect x="1124" y="728" width="210" height="48" rx="24" fill="#2D74FF"/>
</svg>
