<svg width="1600" height="1000" viewBox="0 0 1600 1000" fill="none" xmlns="http://www.w3.org/2000/svg">
  <rect width="1600" height="1000" rx="52" fill="#0A1326"/>
  <rect x="52" y="52" width="1496" height="896" rx="42" fill="#102041"/>
  <rect x="100" y="100" width="1400" height="120" rx="24" fill="#142A54"/>
  <rect x="138" y="146" width="230" height="30" rx="12" fill="#80B1FF" fill-opacity="0.52"/>
  <rect x="1098" y="146" width="160" height="30" rx="15" fill="#1E4EAA"/>
  <rect x="1278" y="146" width="180" height="30" rx="15" fill="#2F75FF"/>
  <rect x="100" y="258" width="600" height="300" rx="30" fill="#162E5C"/>
  <path d="M162 500C242 472 290 332 390 352C470 368 500 470 596 432" stroke="#8EB9FF" stroke-width="10" stroke-linecap="round"/>
  <rect x="730" y="258" width="770" height="300" rx="30" fill="#162E5C"/>
  <rect x="768" y="306" width="300" height="20" rx="10" fill="#8EB9FF" fill-opacity="0.52"/>
  <rect x="768" y="346" width="240" height="16" rx="8" fill="#8EB9FF" fill-opacity="0.36"/>
  <rect x="768" y="382" width="420" height="16" rx="8" fill="#8EB9FF" fill-opacity="0.3"/>
  <rect x="100" y="592" width="1400" height="256" rx="30" fill="#162E5C"/>
  <rect x="138" y="644" width="200" height="18" rx="9" fill="#8EB9FF" fill-opacity="0.5"/>
  <rect x="138" y="680" width="560" height="16" rx="8" fill="#8EB9FF" fill-opacity="0.3"/>
  <rect x="138" y="714" width="640" height="16" rx="8" fill="#8EB9FF" fill-opacity="0.3"/>
  <rect x="1266" y="760" width="194" height="50" rx="25" fill="#2F75FF"/>
</svg>
