<svg width="1600" height="1000" viewBox="0 0 1600 1000" fill="none" xmlns="http://www.w3.org/2000/svg">
  <rect width="1600" height="1000" rx="52" fill="#F8FAFF"/>
  <rect x="90" y="70" width="1420" height="860" rx="44" fill="#EAF0FF"/>
  <rect x="190" y="130" width="420" height="760" rx="62" fill="#0F1E3A"/>
  <rect x="228" y="196" width="344" height="612" rx="38" fill="#121F38"/>
  <rect x="250" y="240" width="300" height="130" rx="24" fill="#2B6DFF"/>
  <rect x="250" y="398" width="300" height="94" rx="22" fill="#18335E"/>
  <rect x="250" y="514" width="300" height="94" rx="22" fill="#18335E"/>
  <rect x="250" y="630" width="300" height="138" rx="28" fill="#214782"/>
  <rect x="680" y="180" width="730" height="260" rx="34" fill="#FFFFFF"/>
  <rect x="720" y="230" width="290" height="24" rx="12" fill="#507FFF" fill-opacity="0.42"/>
  <rect x="720" y="272" width="430" height="16" rx="8" fill="#7D9AD4" fill-opacity="0.5"/>
  <rect x="720" y="304" width="380" height="16" rx="8" fill="#7D9AD4" fill-opacity="0.4"/>
  <rect x="680" y="470" width="730" height="360" rx="34" fill="#FFFFFF"/>
  <circle cx="835" cy="648" r="88" fill="#2F73FF" fill-opacity="0.45"/>
  <rect x="970" y="560" width="380" height="22" rx="11" fill="#6389E1" fill-opacity="0.45"/>
  <rect x="970" y="604" width="330" height="16" rx="8" fill="#8FA8DD" fill-opacity="0.52"/>
  <rect x="970" y="642" width="290" height="16" rx="8" fill="#8FA8DD" fill-opacity="0.45"/>
  <rect x="970" y="710" width="210" height="44" rx="22" fill="#2F73FF"/>
</svg>
